<?xml version="1.0" standalone="no"?>
<!DOCTYPE svg PUBLIC "-//W3C//DTD SVG 20010904//EN"
 "http://www.w3.org/TR/2001/REC-SVG-20010904/DTD/svg10.dtd">
<svg version="1.0" xmlns="http://www.w3.org/2000/svg"
 width="744.000000pt" height="744.000000pt" viewBox="0 0 744.000000 744.000000"
 preserveAspectRatio="xMidYMid meet">
<metadata>
Created by potrace 1.14, written by Peter Selinger 2001-2017
</metadata>
<g transform="translate(0.000000,744.000000) scale(0.100000,-0.100000)"
fill="#000000" stroke="none">
<path d="M3637 7404 c-3 -3 -47 -7 -99 -9 -51 -2 -115 -6 -143 -9 -27 -3 -75
-8 -105 -11 -30 -3 -68 -8 -85 -11 -16 -3 -46 -7 -65 -9 -19 -2 -68 -11 -107
-19 -40 -9 -85 -18 -100 -21 -316 -58 -793 -247 -1105 -438 -20 -12 -58 -35
-85 -51 -41 -26 -198 -134 -228 -158 -5 -5 -39 -31 -75 -59 -151 -118 -394
-351 -510 -489 -30 -36 -57 -67 -60 -70 -13 -12 -139 -180 -149 -198 -6 -11
-17 -26 -24 -34 -21 -22 -137 -206 -137 -217 0 -6 -4 -11 -8 -11 -5 0 -44 -71
-88 -157 -43 -87 -82 -159 -86 -161 -4 -2 -10 -19 -14 -38 -3 -19 -10 -34 -15
-34 -5 0 -9 -6 -9 -13 0 -7 -18 -55 -39 -105 -22 -51 -40 -95 -40 -98 0 -2 -9
-28 -19 -57 -21 -55 -99 -324 -106 -367 -3 -14 -5 -25 -6 -25 -5 0 -47 -238
-55 -310 -2 -16 -6 -43 -9 -59 -28 -152 -28 -703 -1 -871 3 -16 7 -52 9 -80 3
-27 7 -57 10 -65 2 -8 7 -33 10 -55 11 -83 57 -289 87 -387 12 -40 23 -77 25
-83 13 -64 112 -319 185 -475 48 -104 163 -316 185 -341 8 -8 14 -19 14 -24 0
-17 167 -253 264 -375 93 -115 111 -134 266 -290 168 -168 220 -213 379 -332
64 -48 124 -94 134 -102 9 -9 19 -16 23 -16 3 0 31 -17 62 -38 233 -156 562
-314 841 -404 69 -22 133 -43 141 -46 8 -3 22 -6 30 -8 8 -1 33 -8 55 -14 87
-25 178 -45 295 -65 73 -12 157 -24 210 -30 25 -2 65 -7 89 -10 38 -4 287 -17
316 -17 105 3 313 12 354 16 77 7 152 16 181 20 14 3 41 7 60 10 19 3 53 8 75
11 22 4 58 11 80 17 22 5 51 12 65 14 14 2 52 10 85 19 33 8 71 18 85 21 61
13 289 89 392 130 278 113 470 214 713 377 80 54 116 80 218 160 100 78 171
141 303 272 171 169 279 295 396 460 32 44 61 85 66 90 21 27 192 309 192 318
0 3 16 33 34 66 19 34 32 61 28 61 -4 0 -2 4 3 8 28 19 220 508 230 582 1 8 4
22 8 30 6 14 51 199 61 250 3 14 7 35 10 47 2 11 8 43 12 70 3 26 8 57 10 68
8 37 14 79 19 135 3 30 8 82 12 115 15 140 8 625 -12 746 -2 13 -6 47 -9 74
-3 28 -8 61 -11 75 -3 14 -7 39 -9 55 -3 17 -12 64 -21 105 -9 41 -18 84 -20
95 -29 163 -149 508 -258 737 -29 62 -55 118 -56 123 -2 6 -12 22 -22 37 -10
14 -19 28 -19 31 0 15 -209 350 -229 367 -3 3 -22 28 -40 55 -19 28 -38 52
-41 55 -3 3 -13 14 -21 26 -17 24 -86 107 -149 178 -61 70 -275 282 -336 333
-27 23 -59 50 -70 60 -12 10 -36 29 -54 43 -90 68 -106 81 -119 91 -42 36
-299 202 -311 201 -3 0 -12 6 -20 13 -34 31 -358 187 -500 242 -36 14 -74 29
-85 34 -34 15 -239 79 -269 85 -16 3 -34 8 -39 11 -6 4 -27 10 -46 14 -20 4
-47 10 -61 13 -63 14 -86 19 -105 22 -11 2 -31 5 -45 8 -14 3 -41 9 -60 12
-19 4 -44 8 -55 11 -20 3 -56 8 -150 18 -27 3 -63 8 -80 10 -87 11 -338 18
-380 11 -11 -2 -25 0 -31 5 -6 5 -13 6 -17 3z m363 -708 c96 -10 150 -18 200
-27 30 -6 68 -12 83 -14 15 -1 47 -7 70 -13 41 -11 92 -23 112 -27 61 -14 253
-74 300 -94 11 -5 47 -19 80 -32 83 -31 316 -147 400 -199 39 -24 82 -49 96
-57 15 -7 32 -20 39 -28 7 -8 19 -15 26 -15 8 0 14 -4 14 -8 0 -4 12 -15 28
-24 62 -38 240 -186 347 -289 l90 -88 -1075 -1 c-977 -1 -1140 -2 -1235 -14
-94 -12 -157 -22 -183 -30 -9 -3 -30 -8 -47 -11 -16 -3 -34 -7 -40 -9 -5 -1
-30 -8 -55 -15 -48 -13 -150 -49 -215 -76 -67 -27 -230 -109 -233 -117 -2 -5
-8 -8 -14 -8 -12 0 -176 -110 -238 -159 -25 -20 -51 -40 -58 -46 -20 -16 -215
-211 -232 -231 -8 -11 -34 -42 -57 -71 -24 -28 -43 -55 -43 -61 0 -6 -4 -12
-8 -14 -4 -1 -23 -25 -42 -53 -18 -27 -42 -63 -53 -78 -30 -46 -126 -242 -153
-315 -14 -37 -28 -74 -31 -82 -3 -8 -7 -20 -9 -27 -1 -7 -9 -34 -18 -60 -8
-26 -17 -59 -20 -73 -2 -14 -7 -32 -10 -40 -2 -8 -10 -40 -16 -70 l-10 -55
-518 0 -517 1 1 24 c2 46 20 156 40 250 3 14 7 36 10 49 13 63 65 244 89 306
14 39 27 77 29 86 12 50 119 276 188 398 45 80 59 102 113 189 10 18 23 32 27
32 4 0 8 6 8 13 0 6 9 23 20 37 11 14 57 72 101 129 107 137 387 418 470 473
15 9 32 23 40 30 30 29 273 195 309 211 8 4 31 17 50 28 197 120 587 271 805
314 224 43 267 50 410 61 44 4 81 8 83 9 5 4 409 -4 452 -9z m2421 -1693 c100
-212 188 -473 225 -663 4 -24 8 -42 19 -100 3 -14 7 -40 10 -59 2 -18 7 -50
10 -71 4 -26 2 -39 -7 -42 -7 -2 -949 -4 -2093 -3 -1833 0 -2080 2 -2079 15 1
32 45 154 82 230 132 270 349 492 613 627 133 68 304 123 427 137 18 2 35 6
38 9 4 3 615 6 1360 7 l1353 1 42 -88z m-4631 -1643 c6 -10 21 -82 22 -110 0
-3 4 -15 9 -28 5 -12 11 -33 13 -45 3 -12 19 -62 36 -112 17 -49 32 -94 34
-100 14 -48 114 -247 162 -323 19 -29 34 -56 34 -61 0 -5 3 -11 8 -13 4 -1 25
-28 47 -58 102 -142 258 -304 401 -415 92 -72 235 -165 324 -210 30 -15 63
-31 72 -36 87 -44 312 -119 443 -148 194 -41 263 -44 1417 -44 953 0 1066 -2
1055 -15 -31 -39 -146 -147 -226 -212 -24 -19 -50 -42 -60 -51 -9 -8 -38 -31
-66 -50 -27 -19 -52 -36 -55 -39 -8 -9 -110 -80 -114 -80 -2 0 -35 -20 -73
-45 -80 -53 -338 -183 -438 -221 -85 -32 -234 -84 -255 -88 -8 -2 -22 -6 -30
-9 -14 -6 -82 -24 -122 -33 -40 -9 -65 -14 -98 -21 -47 -9 -50 -10 -52 -13 -2
-1 -14 -3 -28 -4 -52 -5 -136 -17 -150 -21 -87 -25 -639 -25 -768 0 -11 2 -40
6 -64 10 -90 13 -104 15 -148 25 -25 5 -72 17 -105 25 -33 9 -73 18 -88 21
-35 7 -280 89 -322 109 -16 7 -50 21 -75 31 -84 33 -309 151 -322 169 -4 6 -8
7 -8 3 0 -10 -229 144 -297 199 -29 24 -56 43 -59 43 -4 0 -14 8 -23 18 -9 9
-54 51 -101 92 -47 41 -87 78 -90 81 -3 4 -41 45 -85 91 -205 215 -363 441
-501 718 -61 123 -168 385 -179 439 -2 9 -14 54 -28 101 -14 47 -28 99 -30
115 -3 17 -8 41 -11 55 -12 53 -35 190 -41 240 -2 14 1 27 5 30 5 3 236 5 515
4 416 0 508 -3 515 -14z m4893 11 c7 -1 4 -37 -9 -116 -3 -16 -7 -43 -9 -59
-3 -15 -7 -38 -11 -49 -4 -12 -8 -33 -9 -47 -1 -14 -12 -61 -24 -106 -12 -44
-24 -87 -25 -95 -2 -8 -6 -21 -9 -29 -3 -8 -17 -53 -32 -99 -29 -92 -74 -205
-135 -335 l-40 -87 -1367 4 c-753 2 -1384 6 -1403 10 -19 4 -46 10 -60 14 -14
3 -34 8 -45 10 -25 4 -143 41 -170 52 -106 46 -252 122 -284 149 -9 7 -43 34
-76 59 -56 43 -187 172 -229 224 -44 57 -117 175 -154 251 -44 89 -96 234 -88
246 3 5 4134 8 4179 3z"/>
</g>
</svg>
